<?xml version="1.0" standalone="no"?>
<!DOCTYPE svg PUBLIC "-//W3C//DTD SVG 20010904//EN"
 "http://www.w3.org/TR/2001/REC-SVG-20010904/DTD/svg10.dtd">
<svg version="1.0" xmlns="http://www.w3.org/2000/svg"
 width="600.000000pt" height="600.000000pt" viewBox="0 0 600.000000 600.000000"
 preserveAspectRatio="xMidYMid meet">
<metadata>
Created by potrace 1.11, written by Peter Selinger 2001-2013
</metadata>
<g transform="translate(0.000000,600.000000) scale(0.100000,-0.100000)"
fill="#000000" stroke="none">
<path d="M2892 5663 c-377 -282 -700 -682 -883 -1093 l-47 -105 -114 -71
c-523 -324 -874 -793 -1027 -1374 -48 -182 -62 -282 -68 -478 l-6 -183 -32
-42 c-225 -294 -413 -705 -493 -1078 -38 -174 -67 -397 -55 -415 12 -16 233
-108 358 -148 192 -62 397 -105 595 -126 128 -13 440 -13 571 1 l106 11 65
-41 c185 -117 482 -226 746 -276 510 -96 1096 11 1545 282 l58 35 100 -11
c124 -14 442 -14 569 -1 198 21 403 64 595 126 125 40 346 132 358 148 20 29
-39 381 -99 586 -93 324 -260 659 -450 909 -34 44 -34 44 -34 158 0 402 -119
812 -338 1168 -90 146 -198 281 -332 415 -140 140 -256 230 -427 335 l-115 70
-47 105 c-149 334 -411 690 -690 935 -129 114 -278 225 -301 225 -10 0 -58
-30 -108 -67z m217 -180 c204 -164 410 -394 556 -618 64 -98 175 -293 175
-307 0 -3 -51 11 -112 32 -62 21 -148 46 -191 56 l-78 18 -47 70 c-93 141
-268 346 -363 426 l-49 41 -51 -43 c-111 -93 -301 -325 -409 -497 -197 -317
-333 -730 -355 -1076 -3 -55 -8 -133 -11 -172 l-6 -73 -46 -14 c-26 -8 -85
-28 -131 -45 -47 -17 -89 -31 -94 -31 -16 0 0 371 22 520 88 580 346 1098 752
1511 113 115 305 279 328 279 8 0 57 -35 110 -77z m-24 -563 c68 -75 151 -176
167 -205 4 -7 -83 -10 -253 -10 -142 0 -259 0 -259 1 0 16 251 305 261 301 4
-1 42 -40 84 -87z m126 -360 c501 -50 998 -297 1330 -661 334 -367 523 -798
563 -1289 l7 -74 -103 100 c-57 55 -130 123 -164 152 -58 50 -61 55 -79 129
-23 98 -81 255 -130 353 -266 529 -749 887 -1337 991 -229 41 -525 28 -744
-32 -41 -11 -77 -19 -79 -17 -5 5 80 190 119 261 34 60 40 66 78 72 144 25
377 31 539 15z m-1334 -333 c-24 -62 -87 -334 -87 -373 0 -15 -30 -53 -86
-111 -282 -288 -459 -650 -514 -1048 -15 -116 -13 -375 5 -491 59 -386 225
-728 482 -995 l74 -76 -33 -7 c-52 -10 -318 -27 -328 -21 -18 11 -130 164
-180 244 -152 245 -248 507 -296 806 -24 152 -25 481 -1 620 97 567 385 1045
829 1376 115 86 146 103 135 76z m1468 -121 c61 -14 140 -36 176 -47 l67 -22
15 -56 c58 -209 101 -591 66 -591 -6 0 -54 9 -107 20 -182 36 -349 52 -562 52
-213 0 -380 -16 -562 -52 -53 -11 -101 -20 -107 -20 -35 0 8 383 66 592 l16
57 61 20 c202 66 309 81 556 77 181 -3 218 -6 315 -30z m601 -255 c49 -33 100
-70 113 -81 31 -26 37 -69 47 -290 25 -606 -167 -1223 -534 -1713 -85 -113
-228 -277 -241 -277 -8 0 -142 99 -195 143 l-30 24 86 95 c319 353 517 759
598 1230 44 252 42 576 -5 833 -14 74 -25 137 -25 140 0 10 97 -44 186 -104z
m-2191 -465 l0 -204 -80 -42 c-44 -24 -122 -70 -174 -102 -52 -32 -95 -57 -97
-55 -13 12 93 243 168 365 50 83 170 242 182 242 1 0 1 -92 1 -204z m2575 104
c69 -91 126 -182 180 -290 40 -79 92 -211 86 -217 -2 -2 -45 23 -97 56 -52 32
-129 76 -171 97 l-78 39 0 192 c0 105 -3 200 -7 210 -12 32 24 -4 87 -87z
m-935 -194 c138 -22 285 -56 285 -66 0 -36 -33 -257 -40 -264 -5 -4 -48 1 -97
12 -188 44 -309 56 -538 56 -222 1 -317 -8 -492 -44 -296 -61 -603 -189 -848
-352 -88 -59 -134 -95 -307 -239 l-38 -31 0 115 c0 164 15 267 43 290 125 100
359 237 547 320 269 118 511 182 840 221 87 10 549 -3 645 -18z m1017 -370
c583 -352 1027 -950 1203 -1618 40 -153 80 -387 68 -399 -13 -13 -232 -95
-328 -122 -118 -34 -246 -62 -375 -82 -121 -19 -580 -33 -580 -18 0 5 48 52
106 103 58 52 119 111 135 131 26 33 36 38 82 43 255 25 381 47 546 94 51 14
96 32 98 39 7 19 -33 178 -79 313 -46 133 -143 342 -219 466 -191 317 -474
602 -799 804 -47 29 -86 54 -88 55 -2 2 6 52 17 111 11 60 22 126 26 146 l6
38 57 -32 c31 -17 87 -50 124 -72z m-1222 -36 c180 -17 420 -64 420 -83 0 -35
-105 -314 -161 -428 -102 -205 -290 -473 -418 -593 l-31 -30 -31 30 c-128 120
-316 388 -418 593 -56 114 -161 393 -161 428 0 5 30 17 68 26 250 59 492 78
732 57z m-900 -240 c173 -538 508 -980 980 -1291 168 -111 332 -191 549 -269
l105 -37 -79 -46 c-43 -25 -122 -65 -175 -88 l-98 -41 -101 45 c-617 277
-1134 821 -1389 1462 -50 125 -94 264 -87 275 3 4 49 27 102 49 54 23 107 46
118 51 11 5 24 8 29 6 5 -1 25 -53 46 -116z m-390 -182 c119 -352 318 -694
569 -976 40 -46 72 -85 70 -86 -13 -12 -237 -120 -302 -145 -90 -36 -271 -91
-298 -91 -24 0 -163 132 -242 230 -170 210 -276 430 -337 695 l-20 90 77 74
c43 41 112 101 153 134 86 69 281 200 287 193 3 -2 22 -55 43 -118z m2370 42
c108 -73 213 -157 314 -252 l79 -74 -27 -109 c-52 -209 -119 -365 -231 -535
-103 -156 -303 -370 -346 -370 -25 0 -209 56 -296 91 -65 25 -289 133 -302
145 -2 1 30 40 70 86 278 312 470 656 605 1086 5 16 19 9 134 -68z m-3490
-406 c0 -31 35 -190 62 -277 l20 -68 -55 -117 c-91 -192 -196 -529 -171 -551
12 -11 129 -45 239 -70 386 -85 770 -77 1159 24 147 38 273 87 453 176 l162
80 111 -93 c130 -109 134 -90 -40 -188 -251 -141 -548 -247 -840 -300 -332
-59 -726 -52 -1055 21 -172 38 -480 140 -508 168 -12 12 28 246 68 399 67 256
192 545 324 749 52 82 71 94 71 47z m4071 -157 c36 -50 80 -116 98 -145 l32
-54 -17 -51 c-22 -68 -113 -250 -173 -347 -163 -263 -418 -517 -682 -681 -336
-209 -705 -313 -1109 -313 -208 0 -339 16 -524 65 -197 51 -485 169 -446 183
8 2 52 14 96 25 45 11 132 38 194 59 l112 38 106 -28 c185 -48 303 -61 517
-55 200 6 282 18 467 72 277 81 529 229 742 435 167 162 306 358 396 558 46
104 110 287 110 317 0 29 16 14 81 -78z m-3859 -500 c32 -61 89 -160 128 -219
38 -59 70 -109 70 -111 0 -11 -367 54 -392 69 -14 9 114 374 130 374 4 0 33
-51 64 -113z m4126 11 c50 -129 92 -267 84 -272 -13 -8 -247 -54 -307 -61 -33
-4 -68 -9 -77 -11 -11 -3 11 37 58 108 41 62 101 164 132 225 31 62 60 113 64
113 3 0 24 -46 46 -102z m-2049 -478 c34 -22 108 -65 164 -96 56 -30 106 -59
110 -63 17 -17 -161 -36 -343 -36 -179 0 -355 18 -345 35 3 5 53 34 111 64 58
31 131 74 162 96 31 21 62 39 68 39 6 1 39 -17 73 -39z"/>
</g>
</svg>
